<svg xmlns="http://www.w3.org/2000/svg" xmlns:xlink="http://www.w3.org/1999/xlink" version="1.1" class="marks" width="400" height="400" viewBox="0 0 400 400"><g fill="none" stroke-miterlimit="10" transform="translate(40,40)"><g class="mark-group role-frame root" role="graphics-object" aria-roledescription="group mark container"><g transform="translate(160,160)"><path class="background" aria-hidden="true" d="M0,0h320v320h-320Z"/><g><g class="mark-rule role-mark radial-grid" role="graphics-symbol" aria-roledescription="rule mark container"><line transform="translate(0,0)" x2="-79.99999999999997" y2="-138.5640646055102" stroke="lightgray" stroke-width="1"/><line transform="translate(0,0)" x2="160" y2="0" stroke="lightgray" stroke-width="1"/><line transform="translate(0,0)" x2="-79.99999999999997" y2="138.5640646055102" stroke="lightgray" stroke-width="1"/></g><g class="mark-line role-mark outer-line" role="graphics-symbol" aria-roledescription="line mark container"><path d="M-80,-138.564L160,0L-80,138.564Z" stroke="lightgray" stroke-width="1"/></g><g class="mark-group role-legend" role="graphics-symbol" aria-roledescription="legend" aria-label="Symbol legend titled 'Legend' for fill color with 4 values: UUT1, UUT2, UUT3, UUT4"><g transform="translate(-200,-200)"><path class="background" aria-hidden="true" d="M0,0h46v66h-46Z" pointer-events="none"/><g><g class="mark-group role-legend-entry"><g transform="translate(0,16)"><path class="background" aria-hidden="true" d="M0,0h0v0h0Z" pointer-events="none"/><g><g class="mark-group role-scope" role="graphics-object" aria-roledescription="group mark container"><g transform="translate(0,0)"><path class="background" aria-hidden="true" d="M0,0h43.109375v11h-43.109375Z" pointer-events="none" opacity="1"/><g><g class="mark-symbol role-legend-symbol" pointer-events="none"><path transform="translate(6,6)" d="M5,0A5,5,0,1,1,-5,0A5,5,0,1,1,5,0" fill="#e41a1c" stroke-width="1.5" opacity="1"/></g><g class="mark-text role-legend-label" pointer-events="none"><text text-anchor="start" transform="translate(16,9)" font-family="sans-serif" font-size="10px" fill="#000" opacity="1">UUT1</text></g></g><path class="foreground" aria-hidden="true" d="" pointer-events="none" display="none"/></g><g transform="translate(0,13)"><path class="background" aria-hidden="true" d="M0,0h43.109375v11h-43.109375Z" pointer-events="none" opacity="1"/><g><g class="mark-symbol role-legend-symbol" pointer-events="none"><path transform="translate(6,6)" d="M5,0A5,5,0,1,1,-5,0A5,5,0,1,1,5,0" fill="#377eb8" stroke-width="1.5" opacity="1"/></g><g class="mark-text role-legend-label" pointer-events="none"><text text-anchor="start" transform="translate(16,9)" font-family="sans-serif" font-size="10px" fill="#000" opacity="1">UUT2</text></g></g><path class="foreground" aria-hidden="true" d="" pointer-events="none" display="none"/></g><g transform="translate(0,26)"><path class="background" aria-hidden="true" d="M0,0h43.109375v11h-43.109375Z" pointer-events="none" opacity="1"/><g><g class="mark-symbol role-legend-symbol" pointer-events="none"><path transform="translate(6,6)" d="M5,0A5,5,0,1,1,-5,0A5,5,0,1,1,5,0" fill="#4daf4a" stroke-width="1.5" opacity="1"/></g><g class="mark-text role-legend-label" pointer-events="none"><text text-anchor="start" transform="translate(16,9)" font-family="sans-serif" font-size="10px" fill="#000" opacity="1">UUT3</text></g></g><path class="foreground" aria-hidden="true" d="" pointer-events="none" display="none"/></g><g transform="translate(0,39)"><path class="background" aria-hidden="true" d="M0,0h43.109375v11h-43.109375Z" pointer-events="none" opacity="1"/><g><g class="mark-symbol role-legend-symbol" pointer-events="none"><path transform="translate(6,6)" d="M5,0A5,5,0,1,1,-5,0A5,5,0,1,1,5,0" fill="#984ea3" stroke-width="1.5" opacity="1"/></g><g class="mark-text role-legend-label" pointer-events="none"><text text-anchor="start" transform="translate(16,9)" font-family="sans-serif" font-size="10px" fill="#000" opacity="1">UUT4</text></g></g><path class="foreground" aria-hidden="true" d="" pointer-events="none" display="none"/></g></g></g><path class="foreground" aria-hidden="true" d="" pointer-events="none" display="none"/></g></g><g class="mark-text role-legend-title" pointer-events="none"><text text-anchor="start" transform="translate(0,9)" font-family="sans-serif" font-size="11px" font-weight="bold" fill="#000" opacity="1">Legend</text></g></g><path class="foreground" aria-hidden="true" d="" pointer-events="none" display="none"/></g></g><g class="mark-group role-scope categories" role="graphics-object" aria-roledescription="group mark container"><g transform="translate(0,0)"><path class="background" aria-hidden="true" d="M0,0h0v0h0Z"/><g><g class="mark-line role-mark category-line" role="graphics-symbol" aria-roledescription="line mark container"><path d="M-6.667,-11.547L26.667,0L-20,34.641Z" fill="#e41a1c" fill-opacity="0.1" stroke="#e41a1c" stroke-width="1"/></g><g class="mark-text role-mark value-text" role="graphics-object" aria-roledescription="text mark container"><text text-anchor="middle" transform="translate(-6.666666666666663,-8.547005383792515)" font-family="sans-serif" font-size="11px" fill="black">10</text><text text-anchor="middle" transform="translate(26.666666666666664,3)" font-family="sans-serif" font-size="11px" fill="black">20</text><text text-anchor="middle" transform="translate(-19.999999999999993,37.64101615137755)" font-family="sans-serif" font-size="11px" fill="black">30</text></g></g><path class="foreground" aria-hidden="true" d="" display="none"/></g><g transform="translate(0,0)"><path class="background" aria-hidden="true" d="M0,0h0v0h0Z"/><g><g class="mark-line role-mark category-line" role="graphics-symbol" aria-roledescription="line mark container"><path d="M-26.667,-46.188L66.667,0L-40,69.282Z" fill="#377eb8" fill-opacity="0.1" stroke="#377eb8" stroke-width="1"/></g><g class="mark-text role-mark value-text" role="graphics-object" aria-roledescription="text mark container"><text text-anchor="middle" transform="translate(-26.666666666666654,-43.18802153517006)" font-family="sans-serif" font-size="11px" fill="black">40</text><text text-anchor="middle" transform="translate(66.66666666666667,3)" font-family="sans-serif" font-size="11px" fill="black">50</text><text text-anchor="middle" transform="translate(-39.999999999999986,72.2820323027551)" font-family="sans-serif" font-size="11px" fill="black">60</text></g></g><path class="foreground" aria-hidden="true" d="" display="none"/></g><g transform="translate(0,0)"><path class="background" aria-hidden="true" d="M0,0h0v0h0Z"/><g><g class="mark-line role-mark category-line" role="graphics-symbol" aria-roledescription="line mark container"><path d="M-46.667,-80.829L106.667,0L-60,103.923Z" fill="#4daf4a" fill-opacity="0.1" stroke="#4daf4a" stroke-width="1"/></g><g class="mark-text role-mark value-text" role="graphics-object" aria-roledescription="text mark container"><text text-anchor="middle" transform="translate(-46.66666666666665,-77.82903768654762)" font-family="sans-serif" font-size="11px" fill="black">70</text><text text-anchor="middle" transform="translate(106.66666666666666,3)" font-family="sans-serif" font-size="11px" fill="black">80</text><text text-anchor="middle" transform="translate(-59.99999999999997,106.92304845413264)" font-family="sans-serif" font-size="11px" fill="black">90</text></g></g><path class="foreground" aria-hidden="true" d="" display="none"/></g><g transform="translate(0,0)"><path class="background" aria-hidden="true" d="M0,0h0v0h0Z"/><g><g class="mark-line role-mark category-line" role="graphics-symbol" aria-roledescription="line mark container"><path d="M-66.667,-115.47L66.667,0L-66.667,115.47Z" fill="#984ea3" fill-opacity="0.1" stroke="#984ea3" stroke-width="1"/></g><g class="mark-text role-mark value-text" role="graphics-object" aria-roledescription="text mark container"><text text-anchor="middle" transform="translate(-66.66666666666664,-112.47005383792516)" font-family="sans-serif" font-size="11px" fill="black">100</text><text text-anchor="middle" transform="translate(66.66666666666667,3)" font-family="sans-serif" font-size="11px" fill="black">50</text><text text-anchor="middle" transform="translate(-66.66666666666664,118.47005383792516)" font-family="sans-serif" font-size="11px" fill="black">100</text></g></g><path class="foreground" aria-hidden="true" d="" display="none"/></g></g><g class="mark-text role-mark key-label" role="graphics-object" aria-roledescription="text mark container"><text text-anchor="end" transform="translate(-82.49999999999996,-144.89419162443238)" font-family="sans-serif" font-size="11px" font-weight="bold" fill="black">A</text><text text-anchor="start" transform="translate(165,3)" font-family="sans-serif" font-size="11px" font-weight="bold" fill="black">B</text><text text-anchor="end" transform="translate(-82.49999999999996,151.89419162443238)" font-family="sans-serif" font-size="11px" font-weight="bold" fill="black">C</text></g></g><path class="foreground" aria-hidden="true" d="" display="none"/></g></g></g></svg>