<svg xmlns="http://www.w3.org/2000/svg" xmlns:xlink="http://www.w3.org/1999/xlink" version="1.1" class="marks" width="788" height="442" viewBox="0 0 788 442"><g fill="none" stroke-miterlimit="10" transform="translate(37,5)"><g class="mark-group role-frame root" role="graphics-object" aria-roledescription="group mark container"><g transform="translate(0,0)"><path class="background" aria-hidden="true" d="M0,0h700v400h-700Z"/><g><g class="mark-group role-axis" role="graphics-symbol" aria-roledescription="axis" aria-label="X-axis titled 'X' for a linear scale with values from 0 to 100"><g transform="translate(0.5,400.5)"><path class="background" aria-hidden="true" d="M0,0h0v0h0Z" pointer-events="none"/><g><g class="mark-rule role-axis-tick" pointer-events="none"><line transform="translate(0,0)" x2="0" y2="5" stroke="#888" stroke-width="1" opacity="1"/><line transform="translate(70,0)" x2="0" y2="5" stroke="#888" stroke-width="1" opacity="1"/><line transform="translate(140,0)" x2="0" y2="5" stroke="#888" stroke-width="1" opacity="1"/><line transform="translate(210,0)" x2="0" y2="5" stroke="#888" stroke-width="1" opacity="1"/><line transform="translate(280,0)" x2="0" y2="5" stroke="#888" stroke-width="1" opacity="1"/><line transform="translate(350,0)" x2="0" y2="5" stroke="#888" stroke-width="1" opacity="1"/><line transform="translate(420,0)" x2="0" y2="5" stroke="#888" stroke-width="1" opacity="1"/><line transform="translate(490,0)" x2="0" y2="5" stroke="#888" stroke-width="1" opacity="1"/><line transform="translate(560,0)" x2="0" y2="5" stroke="#888" stroke-width="1" opacity="1"/><line transform="translate(630,0)" x2="0" y2="5" stroke="#888" stroke-width="1" opacity="1"/><line transform="translate(700,0)" x2="0" y2="5" stroke="#888" stroke-width="1" opacity="1"/></g><g class="mark-text role-axis-label" pointer-events="none"><text text-anchor="middle" transform="translate(0,15)" font-family="sans-serif" font-size="10px" fill="#000" opacity="1">0</text><text text-anchor="middle" transform="translate(70,15)" font-family="sans-serif" font-size="10px" fill="#000" opacity="1">10</text><text text-anchor="middle" transform="translate(140,15)" font-family="sans-serif" font-size="10px" fill="#000" opacity="1">20</text><text text-anchor="middle" transform="translate(210,15)" font-family="sans-serif" font-size="10px" fill="#000" opacity="1">30</text><text text-anchor="middle" transform="translate(280,15)" font-family="sans-serif" font-size="10px" fill="#000" opacity="1">40</text><text text-anchor="middle" transform="translate(350,15)" font-family="sans-serif" font-size="10px" fill="#000" opacity="1">50</text><text text-anchor="middle" transform="translate(420,15)" font-family="sans-serif" font-size="10px" fill="#000" opacity="1">60</text><text text-anchor="middle" transform="translate(490,15)" font-family="sans-serif" font-size="10px" fill="#000" opacity="1">70</text><text text-anchor="middle" transform="translate(560,15)" font-family="sans-serif" font-size="10px" fill="#000" opacity="1">80</text><text text-anchor="middle" transform="translate(630,15)" font-family="sans-serif" font-size="10px" fill="#000" opacity="1">90</text><text text-anchor="middle" transform="translate(700,15)" font-family="sans-serif" font-size="10px" fill="#000" opacity="1">100</text></g><g class="mark-rule role-axis-domain" pointer-events="none"><line transform="translate(0,0)" x2="700" y2="0" stroke="#888" stroke-width="1" opacity="1"/></g><g class="mark-text role-axis-title" pointer-events="none"><text text-anchor="middle" transform="translate(350,30)" font-family="sans-serif" font-size="11px" font-weight="bold" fill="#000" opacity="1">X</text></g></g><path class="foreground" aria-hidden="true" d="" pointer-events="none" display="none"/></g></g><g class="mark-group role-scope" role="graphics-object" aria-roledescription="group mark container"><g transform="translate(0,19.047619047619037)"><path class="background" aria-hidden="true" d="M0,0h0v0h0Z"/><g><g class="mark-rect role-mark bars" role="graphics-symbol" aria-roledescription="rect mark container"><path d="M0,0h70v25.396825396825395h-70Z" fill="#8dd3c7"/><path d="M0,25.396825396825395h140v25.396825396825395h-140Z" fill="#ffffb3"/><path d="M0,50.79365079365079h210v25.396825396825395h-210Z" fill="#bebada"/></g><g class="mark-text role-mark" role="graphics-object" aria-roledescription="text mark container"><text text-anchor="end" transform="translate(65,15.698412698412698)" font-family="sans-serif" font-size="11px" fill="black">10</text><text text-anchor="end" transform="translate(135,41.095238095238095)" font-family="sans-serif" font-size="11px" fill="black">20</text><text text-anchor="end" transform="translate(205,66.4920634920635)" font-family="sans-serif" font-size="11px" fill="black">30</text></g></g><path class="foreground" aria-hidden="true" d="" display="none"/></g><g transform="translate(0,114.28571428571428)"><path class="background" aria-hidden="true" d="M0,0h0v0h0Z"/><g><g class="mark-rect role-mark bars" role="graphics-symbol" aria-roledescription="rect mark container"><path d="M0,0h280v25.396825396825395h-280Z" fill="#8dd3c7"/><path d="M0,25.396825396825395h350v25.396825396825395h-350Z" fill="#ffffb3"/><path d="M0,50.79365079365079h420v25.396825396825395h-420Z" fill="#bebada"/></g><g class="mark-text role-mark" role="graphics-object" aria-roledescription="text mark container"><text text-anchor="end" transform="translate(275,15.698412698412698)" font-family="sans-serif" font-size="11px" fill="black">40</text><text text-anchor="end" transform="translate(345,41.095238095238095)" font-family="sans-serif" font-size="11px" fill="black">50</text><text text-anchor="end" transform="translate(415,66.4920634920635)" font-family="sans-serif" font-size="11px" fill="black">60</text></g></g><path class="foreground" aria-hidden="true" d="" display="none"/></g><g transform="translate(0,209.52380952380952)"><path class="background" aria-hidden="true" d="M0,0h0v0h0Z"/><g><g class="mark-rect role-mark bars" role="graphics-symbol" aria-roledescription="rect mark container"><path d="M0,0h490v25.396825396825395h-490Z" fill="#8dd3c7"/><path d="M0,25.396825396825395h560v25.396825396825395h-560Z" fill="#ffffb3"/><path d="M0,50.79365079365079h630v25.396825396825395h-630Z" fill="#bebada"/></g><g class="mark-text role-mark" role="graphics-object" aria-roledescription="text mark container"><text text-anchor="end" transform="translate(485,15.698412698412698)" font-family="sans-serif" font-size="11px" fill="black">70</text><text text-anchor="end" transform="translate(555,41.095238095238095)" font-family="sans-serif" font-size="11px" fill="black">80</text><text text-anchor="end" transform="translate(625,66.4920634920635)" font-family="sans-serif" font-size="11px" fill="black">90</text></g></g><path class="foreground" aria-hidden="true" d="" display="none"/></g><g transform="translate(0,304.76190476190476)"><path class="background" aria-hidden="true" d="M0,0h0v0h0Z"/><g><g class="mark-rect role-mark bars" role="graphics-symbol" aria-roledescription="rect mark container"><path d="M0,0h700v25.396825396825395h-700Z" fill="#8dd3c7"/><path d="M0,25.396825396825395h350v25.396825396825395h-350Z" fill="#ffffb3"/><path d="M0,50.79365079365079h700v25.396825396825395h-700Z" fill="#bebada"/></g><g class="mark-text role-mark" role="graphics-object" aria-roledescription="text mark container"><text text-anchor="end" transform="translate(695,15.698412698412698)" font-family="sans-serif" font-size="11px" fill="black">100</text><text text-anchor="end" transform="translate(345,41.095238095238095)" font-family="sans-serif" font-size="11px" fill="black">50</text><text text-anchor="end" transform="translate(695,66.4920634920635)" font-family="sans-serif" font-size="11px" fill="black">100</text></g></g><path class="foreground" aria-hidden="true" d="" display="none"/></g></g><g class="mark-group role-legend" role="graphics-symbol" aria-roledescription="legend" aria-label="Symbol legend titled 'Legend' for fill color with 3 values: A, B, C"><g transform="translate(700,0)"><path class="background" aria-hidden="true" d="M0,0h46v53h-46Z" pointer-events="none"/><g><g class="mark-group role-legend-entry"><g transform="translate(0,16)"><path class="background" aria-hidden="true" d="M0,0h0v0h0Z" pointer-events="none"/><g><g class="mark-group role-scope" role="graphics-object" aria-roledescription="group mark container"><g transform="translate(0,0)"><path class="background" aria-hidden="true" d="M0,0h22.982421875v11h-22.982421875Z" pointer-events="none" opacity="1"/><g><g class="mark-symbol role-legend-symbol" pointer-events="none"><path transform="translate(6,6)" d="M5,0A5,5,0,1,1,-5,0A5,5,0,1,1,5,0" fill="#8dd3c7" stroke-width="1.5" opacity="1"/></g><g class="mark-text role-legend-label" pointer-events="none"><text text-anchor="start" transform="translate(16,9)" font-family="sans-serif" font-size="10px" fill="#000" opacity="1">A</text></g></g><path class="foreground" aria-hidden="true" d="" pointer-events="none" display="none"/></g><g transform="translate(0,13)"><path class="background" aria-hidden="true" d="M0,0h22.982421875v11h-22.982421875Z" pointer-events="none" opacity="1"/><g><g class="mark-symbol role-legend-symbol" pointer-events="none"><path transform="translate(6,6)" d="M5,0A5,5,0,1,1,-5,0A5,5,0,1,1,5,0" fill="#ffffb3" stroke-width="1.5" opacity="1"/></g><g class="mark-text role-legend-label" pointer-events="none"><text text-anchor="start" transform="translate(16,9)" font-family="sans-serif" font-size="10px" fill="#000" opacity="1">B</text></g></g><path class="foreground" aria-hidden="true" d="" pointer-events="none" display="none"/></g><g transform="translate(0,26)"><path class="background" aria-hidden="true" d="M0,0h22.982421875v11h-22.982421875Z" pointer-events="none" opacity="1"/><g><g class="mark-symbol role-legend-symbol" pointer-events="none"><path transform="translate(6,6)" d="M5,0A5,5,0,1,1,-5,0A5,5,0,1,1,5,0" fill="#bebada" stroke-width="1.5" opacity="1"/></g><g class="mark-text role-legend-label" pointer-events="none"><text text-anchor="start" transform="translate(16,9)" font-family="sans-serif" font-size="10px" fill="#000" opacity="1">C</text></g></g><path class="foreground" aria-hidden="true" d="" pointer-events="none" display="none"/></g></g></g><path class="foreground" aria-hidden="true" d="" pointer-events="none" display="none"/></g></g><g class="mark-text role-legend-title" pointer-events="none"><text text-anchor="start" transform="translate(0,9)" font-family="sans-serif" font-size="11px" font-weight="bold" fill="#000" opacity="1">Legend</text></g></g><path class="foreground" aria-hidden="true" d="" pointer-events="none" display="none"/></g></g><g class="mark-group role-axis" role="graphics-symbol" aria-roledescription="axis" aria-label="Y-axis for a discrete scale with 4 values: UUT1, UUT2, UUT3, UUT4"><g transform="translate(0.5,0.5)"><path class="background" aria-hidden="true" d="M0,0h0v0h0Z" pointer-events="none"/><g><g class="mark-rule role-axis-tick" pointer-events="none"><line transform="translate(0,57)" x2="0" y2="0" stroke="#888" stroke-width="1" opacity="1"/><line transform="translate(0,152)" x2="0" y2="0" stroke="#888" stroke-width="1" opacity="1"/><line transform="translate(0,247)" x2="0" y2="0" stroke="#888" stroke-width="1" opacity="1"/><line transform="translate(0,342)" x2="0" y2="0" stroke="#888" stroke-width="1" opacity="1"/></g><g class="mark-text role-axis-label" pointer-events="none"><text text-anchor="end" transform="translate(-4,59.64285714285713)" font-family="sans-serif" font-size="10px" fill="#000" opacity="1">UUT1</text><text text-anchor="end" transform="translate(-4,154.88095238095238)" font-family="sans-serif" font-size="10px" fill="#000" opacity="1">UUT2</text><text text-anchor="end" transform="translate(-4,250.11904761904762)" font-family="sans-serif" font-size="10px" fill="#000" opacity="1">UUT3</text><text text-anchor="end" transform="translate(-4,345.35714285714283)" font-family="sans-serif" font-size="10px" fill="#000" opacity="1">UUT4</text></g><g class="mark-rule role-axis-domain" pointer-events="none"><line transform="translate(0,0)" x2="0" y2="400" stroke="#888" stroke-width="1" opacity="1"/></g></g><path class="foreground" aria-hidden="true" d="" pointer-events="none" display="none"/></g></g></g><path class="foreground" aria-hidden="true" d="" display="none"/></g></g></g></svg>